<?xml version="1.0" standalone="no"?>
<!DOCTYPE svg PUBLIC "-//W3C//DTD SVG 20010904//EN"
 "http://www.w3.org/TR/2001/REC-SVG-20010904/DTD/svg10.dtd">
<svg version="1.0" xmlns="http://www.w3.org/2000/svg"
 width="600.000000pt" height="600.000000pt" viewBox="0 0 600.000000 600.000000"
 preserveAspectRatio="xMidYMid meet">
<metadata>
Created by potrace 1.11, written by Peter Selinger 2001-2013
</metadata>
<g transform="translate(0.000000,600.000000) scale(0.100000,-0.100000)"
fill="#000000" stroke="none">
<path d="M1010 5850 l0 -100 -95 0 -95 0 0 -195 0 -195 -200 0 -200 0 0 100 0
100 -195 0 -195 0 0 -295 0 -294 98 -3 97 -3 3 -197 2 -198 95 0 95 0 0 -95 0
-95 198 -2 197 -3 3 -97 3 -98 94 0 95 0 0 -195 0 -195 -95 0 -95 0 -2 -296
-3 -296 -95 -2 -95 -1 -3 -982 -2 -982 -98 -3 -97 -3 -3 -192 -2 -193 -95 0
-95 0 0 -295 0 -295 95 0 95 0 0 -100 0 -100 295 0 294 0 3 98 3 97 97 3 98 3
2 292 3 292 98 3 97 3 0 94 0 94 93 3 92 3 3 98 3 97 -96 0 -95 0 0 195 0 195
-100 0 -100 0 0 495 0 495 100 0 100 0 0 195 0 195 95 0 94 0 3 98 3 97 98 3
97 3 0 94 0 95 195 0 195 0 0 100 0 100 786 -2 786 -3 2 -95 1 -95 198 -3 197
-2 0 -95 0 -95 95 0 94 0 3 -97 3 -98 98 -3 97 -3 0 -194 0 -194 98 -3 97 -3
3 -492 2 -493 -100 0 -100 0 0 -195 0 -194 -97 -3 -98 -3 -3 -75 c-5 -123 -8
-120 103 -120 l95 0 0 -95 0 -94 98 -3 97 -3 3 -292 2 -293 95 0 95 0 0 -100
0 -100 295 0 294 0 3 98 3 97 98 3 97 3 -2 292 -3 292 -85 2 c-47 1 -91 2 -97
2 -10 1 -13 47 -13 196 l0 195 -95 0 -95 0 -2 983 -3 982 -97 3 -98 3 -2 292
-3 292 -98 3 -97 3 2 192 3 192 97 3 97 3 3 97 3 97 193 3 192 2 0 95 0 95
100 0 100 0 2 198 3 197 98 3 97 3 -2 292 -3 292 -195 0 -195 0 -3 -97 -3 -98
-194 0 -195 0 0 195 0 194 -97 3 -98 3 -3 98 -3 97 -389 0 -389 0 -3 -97 -3
-98 -97 -3 -98 -3 0 -94 0 -94 -97 -3 -98 -3 -1 -195 -2 -195 -96 -3 -96 -3 0
-194 0 -195 -590 0 -590 0 0 195 0 194 -97 3 -98 3 -3 198 -2 197 -95 0 -95 0
0 95 0 95 -100 0 -100 0 0 100 0 100 -395 0 -395 0 0 -100z m2164 -1478 c3 -5
6 -47 7 -95 l2 -86 51 -6 c28 -3 71 -6 96 -8 l45 -2 3 -97 3 -97 -98 -3 -98
-3 -3 -92 -3 -93 -299 0 -300 0 0 95 0 94 -97 3 -98 3 -3 98 -3 97 85 0 c46 0
91 3 100 6 13 5 16 24 16 100 l0 94 294 0 c162 0 297 -4 300 -8z"/>
<path d="M2584 4167 c-3 -8 -4 -52 -2 -98 l3 -84 95 0 95 0 3 98 3 97 -96 0
c-70 0 -97 -4 -101 -13z"/>
<path d="M2980 4080 l0 -101 98 3 97 3 0 95 0 95 -97 3 -98 3 0 -101z"/>
<path d="M1998 2903 l-3 -98 -97 -3 -98 -3 0 -294 0 -295 100 0 100 0 0 -95 0
-95 195 0 195 0 0 95 0 94 98 3 97 3 3 293 2 292 -100 0 -100 0 0 100 0 100
-195 0 -194 0 -3 -97z"/>
<path d="M3568 2903 l-3 -98 -98 -3 -97 -3 2 -292 3 -292 98 -3 97 -3 0 -94 0
-95 195 0 195 0 0 95 0 94 98 3 97 3 3 292 2 292 -97 3 -98 3 -3 98 -3 97
-194 0 -194 0 -3 -97z"/>
<path d="M1800 1425 l0 -194 98 -3 97 -3 3 -97 3 -98 94 0 95 0 0 -95 0 -95
-179 0 c-99 0 -186 -3 -195 -6 -13 -5 -16 -24 -16 -100 l0 -94 195 0 195 0 0
100 0 100 785 0 785 0 0 -90 c0 -49 1 -93 3 -97 1 -5 -351 -10 -783 -13 l-785
-5 0 -95 0 -95 784 0 783 0 2 95 1 95 198 3 197 2 0 88 c0 55 -4 92 -12 100
-8 8 -67 12 -200 12 l-189 0 3 93 3 92 98 3 97 3 0 99 0 100 100 0 100 0 0
195 0 195 -197 -2 -198 -3 -2 -80 c-1 -44 -2 -86 -2 -92 -1 -10 -27 -13 -96
-13 l-95 0 0 95 0 95 -590 0 -590 0 0 -95 0 -95 -100 0 -100 0 0 95 0 95 -195
0 -195 0 0 -195z"/>
<path d="M1607 1023 c-4 -3 -7 -46 -7 -95 l0 -88 100 0 100 0 0 95 0 95 -93 0
c-52 0 -97 -3 -100 -7z"/>
<path d="M4160 935 l0 -95 98 0 97 0 -3 95 -3 95 -95 0 -94 0 0 -95z"/>
</g>
</svg>
